<mxfile host="847942dd-d952-4993-9c3d-c6d05938538a" modified="2020-09-03T06:58:11.168Z" agent="5.0 (Windows NT 10.0; Win64; x64) AppleWebKit/537.36 (KHTML, like Gecko) Code/1.47.3 Chrome/78.0.3904.130 Electron/7.3.2 Safari/537.36" etag="sgEm_teS-360WLJJgTBL" version="13.1.3">
    <diagram id="6hGFLwfOUW9BJ-s0fimq" name="Page-1">
        <mxGraphModel dx="983" dy="812" grid="1" gridSize="10" guides="1" tooltips="1" connect="1" arrows="1" fold="1" page="1" pageScale="1" pageWidth="600" pageHeight="700" math="0" shadow="0">
            <root>
                <mxCell id="0"/>
                <mxCell id="1" parent="0"/>
                <mxCell id="141" value="" style="rounded=0;whiteSpace=wrap;html=1;" parent="1" vertex="1">
                    <mxGeometry width="600" height="700" as="geometry"/>
                </mxCell>
                <mxCell id="5" value="勤務名称" style="text;html=1;strokeColor=none;fillColor=none;align=left;verticalAlign=middle;whiteSpace=wrap;rounded=0;" parent="1" vertex="1">
                    <mxGeometry x="40" y="60" width="120" height="20" as="geometry"/>
                </mxCell>
                <mxCell id="11" value="始業・終業" style="text;html=1;strokeColor=none;fillColor=none;align=left;verticalAlign=middle;whiteSpace=wrap;rounded=0;" parent="1" vertex="1">
                    <mxGeometry x="40" y="125" width="120" height="20" as="geometry"/>
                </mxCell>
                <mxCell id="13" value="" style="group" parent="1" vertex="1" connectable="0">
                    <mxGeometry x="40" y="80" width="520" height="30" as="geometry"/>
                </mxCell>
                <mxCell id="4" value="" style="rounded=1;whiteSpace=wrap;html=1;" parent="13" vertex="1">
                    <mxGeometry width="520" height="30" as="geometry"/>
                </mxCell>
                <mxCell id="142" value="①" style="text;html=1;strokeColor=#b85450;fillColor=#f8cecc;align=center;verticalAlign=middle;whiteSpace=wrap;rounded=0;fontSize=18;fontStyle=1" parent="13" vertex="1">
                    <mxGeometry x="10" y="5" width="40" height="20" as="geometry"/>
                </mxCell>
                <mxCell id="23" value="" style="group" parent="1" vertex="1" connectable="0">
                    <mxGeometry x="40" y="145" width="70" height="30" as="geometry"/>
                </mxCell>
                <mxCell id="14" value="" style="group" parent="23" vertex="1" connectable="0">
                    <mxGeometry width="70" height="30" as="geometry"/>
                </mxCell>
                <mxCell id="27" value="" style="group" parent="14" vertex="1" connectable="0">
                    <mxGeometry width="70" height="30" as="geometry"/>
                </mxCell>
                <mxCell id="15" value="" style="rounded=1;whiteSpace=wrap;html=1;" parent="27" vertex="1">
                    <mxGeometry width="70" height="30" as="geometry"/>
                </mxCell>
                <mxCell id="21" value="" style="triangle;whiteSpace=wrap;html=1;align=left;rotation=89;labelBackgroundColor=#2E1616;fillColor=#f5f5f5;strokeColor=#666666;fontColor=#333333;" parent="27" vertex="1">
                    <mxGeometry x="55" y="10" width="10" height="10" as="geometry"/>
                </mxCell>
                <mxCell id="155" value="②" style="text;html=1;strokeColor=#b85450;fillColor=#f8cecc;align=center;verticalAlign=middle;whiteSpace=wrap;rounded=0;fontSize=18;fontStyle=1" parent="27" vertex="1">
                    <mxGeometry x="10" y="5" width="40" height="20" as="geometry"/>
                </mxCell>
                <mxCell id="31" value="" style="rounded=1;whiteSpace=wrap;html=1;" parent="1" vertex="1">
                    <mxGeometry x="40" y="180" width="70" height="30" as="geometry"/>
                </mxCell>
                <mxCell id="32" value="" style="triangle;whiteSpace=wrap;html=1;align=left;rotation=89;labelBackgroundColor=#2E1616;fillColor=#f5f5f5;strokeColor=#666666;fontColor=#333333;" parent="1" vertex="1">
                    <mxGeometry x="95" y="190" width="10" height="10" as="geometry"/>
                </mxCell>
                <mxCell id="33" value="" style="rounded=1;whiteSpace=wrap;html=1;labelBackgroundColor=#2E1616;align=left;" parent="1" vertex="1">
                    <mxGeometry x="127.5" y="145" width="62.5" height="30" as="geometry"/>
                </mxCell>
                <mxCell id="38" value="" style="rounded=1;whiteSpace=wrap;html=1;labelBackgroundColor=#2E1616;align=left;" parent="1" vertex="1">
                    <mxGeometry x="127.5" y="180" width="62.5" height="30" as="geometry"/>
                </mxCell>
                <mxCell id="41" value="時" style="text;html=1;align=center;verticalAlign=middle;resizable=0;points=[];autosize=1;" parent="1" vertex="1">
                    <mxGeometry x="195" y="150" width="30" height="20" as="geometry"/>
                </mxCell>
                <mxCell id="42" value="分～" style="text;html=1;align=center;verticalAlign=middle;resizable=0;points=[];autosize=1;" parent="1" vertex="1">
                    <mxGeometry x="297.5" y="150" width="40" height="20" as="geometry"/>
                </mxCell>
                <mxCell id="43" value="時" style="text;html=1;align=center;verticalAlign=middle;resizable=0;points=[];autosize=1;" parent="1" vertex="1">
                    <mxGeometry x="195" y="185" width="30" height="20" as="geometry"/>
                </mxCell>
                <mxCell id="44" value="" style="rounded=1;whiteSpace=wrap;html=1;labelBackgroundColor=#2E1616;align=left;" parent="1" vertex="1">
                    <mxGeometry x="230" y="145" width="60" height="30" as="geometry"/>
                </mxCell>
                <mxCell id="45" value="" style="rounded=1;whiteSpace=wrap;html=1;labelBackgroundColor=#2E1616;align=left;" parent="1" vertex="1">
                    <mxGeometry x="230" y="180" width="60" height="30" as="geometry"/>
                </mxCell>
                <mxCell id="46" value="分" style="text;html=1;align=center;verticalAlign=middle;resizable=0;points=[];autosize=1;" parent="1" vertex="1">
                    <mxGeometry x="297.5" y="185" width="30" height="20" as="geometry"/>
                </mxCell>
                <mxCell id="57" value="" style="rounded=1;whiteSpace=wrap;html=1;labelBackgroundColor=#2E1616;align=left;" parent="1" vertex="1">
                    <mxGeometry x="370" y="180" width="55" height="30" as="geometry"/>
                </mxCell>
                <mxCell id="58" value="：" style="text;html=1;align=center;verticalAlign=middle;resizable=0;points=[];autosize=1;" parent="1" vertex="1">
                    <mxGeometry x="425" y="185" width="30" height="20" as="geometry"/>
                </mxCell>
                <mxCell id="59" value="" style="rounded=1;whiteSpace=wrap;html=1;labelBackgroundColor=#2E1616;align=left;" parent="1" vertex="1">
                    <mxGeometry x="455" y="180" width="55" height="30" as="geometry"/>
                </mxCell>
                <mxCell id="64" value="深夜休憩 開始時刻" style="text;html=1;align=left;verticalAlign=middle;resizable=0;points=[];autosize=1;" parent="1" vertex="1">
                    <mxGeometry x="40" y="230" width="110" height="20" as="geometry"/>
                </mxCell>
                <mxCell id="65" value="" style="group" parent="1" vertex="1" connectable="0">
                    <mxGeometry x="40" y="250" width="70" height="30" as="geometry"/>
                </mxCell>
                <mxCell id="66" value="" style="group" parent="65" vertex="1" connectable="0">
                    <mxGeometry width="70" height="30" as="geometry"/>
                </mxCell>
                <mxCell id="67" value="" style="group" parent="66" vertex="1" connectable="0">
                    <mxGeometry width="70" height="30" as="geometry"/>
                </mxCell>
                <mxCell id="68" value="" style="rounded=1;whiteSpace=wrap;html=1;" parent="67" vertex="1">
                    <mxGeometry width="70" height="30" as="geometry"/>
                </mxCell>
                <mxCell id="69" value="" style="triangle;whiteSpace=wrap;html=1;align=left;rotation=89;labelBackgroundColor=#2E1616;fillColor=#f5f5f5;strokeColor=#666666;fontColor=#333333;" parent="67" vertex="1">
                    <mxGeometry x="55" y="10" width="10" height="10" as="geometry"/>
                </mxCell>
                <mxCell id="163" value="⑪" style="text;html=1;strokeColor=#b85450;fillColor=#f8cecc;align=center;verticalAlign=middle;whiteSpace=wrap;rounded=0;fontSize=18;fontStyle=1" parent="67" vertex="1">
                    <mxGeometry x="10" y="5" width="40" height="20" as="geometry"/>
                </mxCell>
                <mxCell id="72" value="" style="rounded=1;whiteSpace=wrap;html=1;labelBackgroundColor=#2E1616;align=left;" parent="1" vertex="1">
                    <mxGeometry x="125" y="250" width="75" height="30" as="geometry"/>
                </mxCell>
                <mxCell id="74" value="" style="rounded=1;whiteSpace=wrap;html=1;labelBackgroundColor=#2E1616;align=left;" parent="1" vertex="1">
                    <mxGeometry x="215" y="250" width="75" height="30" as="geometry"/>
                </mxCell>
                <mxCell id="76" value="" style="group" parent="1" vertex="1" connectable="0">
                    <mxGeometry x="323.75" y="250" width="70" height="30" as="geometry"/>
                </mxCell>
                <mxCell id="77" value="" style="group" parent="76" vertex="1" connectable="0">
                    <mxGeometry width="70" height="30" as="geometry"/>
                </mxCell>
                <mxCell id="78" value="" style="group" parent="77" vertex="1" connectable="0">
                    <mxGeometry width="70" height="30" as="geometry"/>
                </mxCell>
                <mxCell id="79" value="" style="rounded=1;whiteSpace=wrap;html=1;" parent="78" vertex="1">
                    <mxGeometry width="70" height="30" as="geometry"/>
                </mxCell>
                <mxCell id="80" value="" style="triangle;whiteSpace=wrap;html=1;align=left;rotation=89;labelBackgroundColor=#2E1616;fillColor=#f5f5f5;strokeColor=#666666;fontColor=#333333;" parent="78" vertex="1">
                    <mxGeometry x="55" y="10" width="10" height="10" as="geometry"/>
                </mxCell>
                <mxCell id="165" value="⑭" style="text;html=1;strokeColor=#b85450;fillColor=#f8cecc;align=center;verticalAlign=middle;whiteSpace=wrap;rounded=0;fontSize=18;fontStyle=1" parent="78" vertex="1">
                    <mxGeometry x="10" y="5" width="40" height="20" as="geometry"/>
                </mxCell>
                <mxCell id="81" value="" style="rounded=1;whiteSpace=wrap;html=1;labelBackgroundColor=#2E1616;align=left;" parent="1" vertex="1">
                    <mxGeometry x="408.75" y="250" width="71.25" height="30" as="geometry"/>
                </mxCell>
                <mxCell id="83" value="" style="rounded=1;whiteSpace=wrap;html=1;labelBackgroundColor=#2E1616;align=left;" parent="1" vertex="1">
                    <mxGeometry x="490" y="250" width="70" height="30" as="geometry"/>
                </mxCell>
                <mxCell id="87" value="" style="group" parent="1" vertex="1" connectable="0">
                    <mxGeometry x="40" y="320" width="392.5" height="30" as="geometry"/>
                </mxCell>
                <mxCell id="88" value="" style="rounded=1;whiteSpace=wrap;html=1;" parent="87" vertex="1">
                    <mxGeometry width="392.5" height="30" as="geometry"/>
                </mxCell>
                <mxCell id="166" value="⑰" style="text;html=1;strokeColor=#b85450;fillColor=#f8cecc;align=center;verticalAlign=middle;whiteSpace=wrap;rounded=0;fontSize=18;fontStyle=1" parent="87" vertex="1">
                    <mxGeometry x="10" y="5" width="40" height="20" as="geometry"/>
                </mxCell>
                <mxCell id="93" value="深夜休憩 終了時刻" style="text;html=1;align=left;verticalAlign=middle;resizable=0;points=[];autosize=1;" parent="1" vertex="1">
                    <mxGeometry x="321.25" y="230" width="110" height="20" as="geometry"/>
                </mxCell>
                <mxCell id="97" value="打刻なし理由" style="text;html=1;align=left;verticalAlign=middle;resizable=0;points=[];autosize=1;" parent="1" vertex="1">
                    <mxGeometry x="40" y="300" width="90" height="20" as="geometry"/>
                </mxCell>
                <mxCell id="99" value="打刻乖離理由" style="text;html=1;align=left;verticalAlign=middle;resizable=0;points=[];autosize=1;" parent="1" vertex="1">
                    <mxGeometry x="40" y="360" width="90" height="20" as="geometry"/>
                </mxCell>
                <mxCell id="101" value="" style="group" parent="1" vertex="1" connectable="0">
                    <mxGeometry x="42.5" y="380" width="390" height="30" as="geometry"/>
                </mxCell>
                <mxCell id="102" value="" style="rounded=1;whiteSpace=wrap;html=1;" parent="101" vertex="1">
                    <mxGeometry width="390" height="30" as="geometry"/>
                </mxCell>
                <mxCell id="118" value="" style="triangle;whiteSpace=wrap;html=1;align=left;rotation=89;labelBackgroundColor=#2E1616;fillColor=#f5f5f5;strokeColor=#666666;fontColor=#333333;" parent="101" vertex="1">
                    <mxGeometry x="370" y="10" width="10" height="10" as="geometry"/>
                </mxCell>
                <mxCell id="169" value="⑱" style="text;html=1;strokeColor=#b85450;fillColor=#f8cecc;align=center;verticalAlign=middle;whiteSpace=wrap;rounded=0;fontSize=18;fontStyle=1" parent="101" vertex="1">
                    <mxGeometry x="7.5" y="5" width="40" height="20" as="geometry"/>
                </mxCell>
                <mxCell id="107" value="保存" style="rounded=1;whiteSpace=wrap;html=1;labelBackgroundColor=none;fontSize=17;align=center;fillColor=#d5e8d4;strokeColor=#82b366;" parent="1" vertex="1">
                    <mxGeometry x="40" y="610" width="160" height="40" as="geometry"/>
                </mxCell>
                <mxCell id="109" value="リセット" style="rounded=1;whiteSpace=wrap;html=1;labelBackgroundColor=none;fontSize=17;align=center;fillColor=#f8cecc;strokeColor=#b85450;" parent="1" vertex="1">
                    <mxGeometry x="215" y="610" width="150" height="40" as="geometry"/>
                </mxCell>
                <mxCell id="111" value="" style="rounded=0;whiteSpace=wrap;html=1;imageHeight=26;" parent="1" vertex="1">
                    <mxGeometry x="375" y="155" width="10" height="10" as="geometry"/>
                </mxCell>
                <mxCell id="112" value="修正" style="text;html=1;align=center;verticalAlign=middle;resizable=0;points=[];autosize=1;" parent="1" vertex="1">
                    <mxGeometry x="402.5" y="150" width="40" height="20" as="geometry"/>
                </mxCell>
                <mxCell id="89" value="" style="triangle;whiteSpace=wrap;html=1;align=left;rotation=89;labelBackgroundColor=#2E1616;fillColor=#f5f5f5;strokeColor=#666666;fontColor=#333333;" parent="1" vertex="1">
                    <mxGeometry x="412.5" y="330" width="10" height="10" as="geometry"/>
                </mxCell>
                <mxCell id="7" value="" style="triangle;whiteSpace=wrap;html=1;align=left;rotation=89;labelBackgroundColor=#2E1616;fillColor=#f5f5f5;strokeColor=#666666;fontColor=#333333;" parent="1" vertex="1">
                    <mxGeometry x="530" y="90" width="10" height="10" as="geometry"/>
                </mxCell>
                <mxCell id="126" value="休憩時間" style="text;html=1;align=center;verticalAlign=middle;resizable=0;points=[];autosize=1;" parent="1" vertex="1">
                    <mxGeometry x="365" y="130" width="60" height="20" as="geometry"/>
                </mxCell>
                <mxCell id="129" value="備考" style="text;html=1;align=center;verticalAlign=middle;resizable=0;points=[];autosize=1;" parent="1" vertex="1">
                    <mxGeometry x="40" y="440" width="40" height="20" as="geometry"/>
                </mxCell>
                <mxCell id="130" value="" style="group" parent="1" vertex="1" connectable="0">
                    <mxGeometry x="40" y="460" width="390" height="100" as="geometry"/>
                </mxCell>
                <mxCell id="131" value="" style="rounded=1;whiteSpace=wrap;html=1;" parent="130" vertex="1">
                    <mxGeometry width="390" height="100" as="geometry"/>
                </mxCell>
                <mxCell id="170" value="⑲" style="text;html=1;strokeColor=#b85450;fillColor=#f8cecc;align=center;verticalAlign=middle;whiteSpace=wrap;rounded=0;fontSize=18;fontStyle=1" parent="130" vertex="1">
                    <mxGeometry x="10" y="10" width="40" height="20" as="geometry"/>
                </mxCell>
                <mxCell id="134" value="" style="shape=delay;whiteSpace=wrap;html=1;" parent="1" vertex="1">
                    <mxGeometry x="420" y="620" width="35" height="20" as="geometry"/>
                </mxCell>
                <mxCell id="135" value="" style="shape=delay;whiteSpace=wrap;html=1;rotation=-180;fillColor=#d5e8d4;strokeColor=#82b366;" parent="1" vertex="1">
                    <mxGeometry x="400" y="620" width="45" height="20" as="geometry"/>
                </mxCell>
                <mxCell id="136" value="" style="ellipse;whiteSpace=wrap;html=1;aspect=fixed;" parent="1" vertex="1">
                    <mxGeometry x="435" y="620" width="20" height="20" as="geometry"/>
                </mxCell>
                <mxCell id="140" value="有効化／無効化" style="text;html=1;align=center;verticalAlign=middle;resizable=0;points=[];autosize=1;" parent="1" vertex="1">
                    <mxGeometry x="460" y="620" width="100" height="20" as="geometry"/>
                </mxCell>
                <mxCell id="153" value="④" style="text;html=1;strokeColor=#b85450;fillColor=#f8cecc;align=center;verticalAlign=middle;whiteSpace=wrap;rounded=0;fontSize=18;fontStyle=1" parent="1" vertex="1">
                    <mxGeometry x="240" y="150" width="40" height="20" as="geometry"/>
                </mxCell>
                <mxCell id="154" value="③" style="text;html=1;strokeColor=#b85450;fillColor=#f8cecc;align=center;verticalAlign=middle;whiteSpace=wrap;rounded=0;fontSize=18;fontStyle=1" parent="1" vertex="1">
                    <mxGeometry x="138.75" y="150" width="40" height="20" as="geometry"/>
                </mxCell>
                <mxCell id="156" value="⑤" style="text;html=1;strokeColor=#b85450;fillColor=#f8cecc;align=center;verticalAlign=middle;whiteSpace=wrap;rounded=0;fontSize=18;fontStyle=1" parent="1" vertex="1">
                    <mxGeometry x="332.5" y="150" width="40" height="20" as="geometry"/>
                </mxCell>
                <mxCell id="157" value="⑥" style="text;html=1;strokeColor=#b85450;fillColor=#f8cecc;align=center;verticalAlign=middle;whiteSpace=wrap;rounded=0;fontSize=18;fontStyle=1" parent="1" vertex="1">
                    <mxGeometry x="50" y="185" width="40" height="20" as="geometry"/>
                </mxCell>
                <mxCell id="158" value="⑦" style="text;html=1;strokeColor=#b85450;fillColor=#f8cecc;align=center;verticalAlign=middle;whiteSpace=wrap;rounded=0;fontSize=18;fontStyle=1" parent="1" vertex="1">
                    <mxGeometry x="138.75" y="185" width="40" height="20" as="geometry"/>
                </mxCell>
                <mxCell id="159" value="⑨" style="text;html=1;strokeColor=#b85450;fillColor=#f8cecc;align=center;verticalAlign=middle;whiteSpace=wrap;rounded=0;fontSize=18;fontStyle=1" parent="1" vertex="1">
                    <mxGeometry x="377.5" y="185" width="40" height="20" as="geometry"/>
                </mxCell>
                <mxCell id="160" value="⑧" style="text;html=1;strokeColor=#b85450;fillColor=#f8cecc;align=center;verticalAlign=middle;whiteSpace=wrap;rounded=0;fontSize=18;fontStyle=1" parent="1" vertex="1">
                    <mxGeometry x="240" y="185" width="40" height="20" as="geometry"/>
                </mxCell>
                <mxCell id="161" value="⑩" style="text;html=1;strokeColor=#b85450;fillColor=#f8cecc;align=center;verticalAlign=middle;whiteSpace=wrap;rounded=0;fontSize=18;fontStyle=1" parent="1" vertex="1">
                    <mxGeometry x="462.5" y="185" width="40" height="20" as="geometry"/>
                </mxCell>
                <mxCell id="162" value="⑫" style="text;html=1;strokeColor=#b85450;fillColor=#f8cecc;align=center;verticalAlign=middle;whiteSpace=wrap;rounded=0;fontSize=18;fontStyle=1" parent="1" vertex="1">
                    <mxGeometry x="132.5" y="255" width="40" height="20" as="geometry"/>
                </mxCell>
                <mxCell id="164" value="⑬" style="text;html=1;strokeColor=#b85450;fillColor=#f8cecc;align=center;verticalAlign=middle;whiteSpace=wrap;rounded=0;fontSize=18;fontStyle=1" parent="1" vertex="1">
                    <mxGeometry x="227.5" y="255" width="40" height="20" as="geometry"/>
                </mxCell>
                <mxCell id="167" value="⑮" style="text;html=1;strokeColor=#b85450;fillColor=#f8cecc;align=center;verticalAlign=middle;whiteSpace=wrap;rounded=0;fontSize=18;fontStyle=1" parent="1" vertex="1">
                    <mxGeometry x="416.25" y="255" width="40" height="20" as="geometry"/>
                </mxCell>
                <mxCell id="168" value="⑯" style="text;html=1;strokeColor=#b85450;fillColor=#f8cecc;align=center;verticalAlign=middle;whiteSpace=wrap;rounded=0;fontSize=18;fontStyle=1" parent="1" vertex="1">
                    <mxGeometry x="497.5" y="255" width="40" height="20" as="geometry"/>
                </mxCell>
                <mxCell id="171" value="⑳" style="text;html=1;strokeColor=#b85450;fillColor=#f8cecc;align=center;verticalAlign=middle;whiteSpace=wrap;rounded=0;fontSize=18;fontStyle=1" parent="1" vertex="1">
                    <mxGeometry x="50" y="620" width="40" height="20" as="geometry"/>
                </mxCell>
                <mxCell id="172" value="㉒" style="text;html=1;strokeColor=#b85450;fillColor=#f8cecc;align=center;verticalAlign=middle;whiteSpace=wrap;rounded=0;fontSize=18;fontStyle=1" parent="1" vertex="1">
                    <mxGeometry x="402.5" y="590" width="40" height="20" as="geometry"/>
                </mxCell>
                <mxCell id="173" value="㉑" style="text;html=1;strokeColor=#b85450;fillColor=#f8cecc;align=center;verticalAlign=middle;whiteSpace=wrap;rounded=0;fontSize=18;fontStyle=1" parent="1" vertex="1">
                    <mxGeometry x="217.5" y="620" width="40" height="20" as="geometry"/>
                </mxCell>
                <mxCell id="174" value="A" style="text;html=1;align=center;verticalAlign=middle;resizable=0;points=[];autosize=1;fillColor=#d5e8d4;strokeColor=#82b366;" parent="1" vertex="1">
                    <mxGeometry x="20" y="60" width="20" height="20" as="geometry"/>
                </mxCell>
                <mxCell id="175" value="B" style="text;html=1;align=center;verticalAlign=middle;resizable=0;points=[];autosize=1;fillColor=#d5e8d4;strokeColor=#82b366;" parent="1" vertex="1">
                    <mxGeometry x="20" y="125" width="20" height="20" as="geometry"/>
                </mxCell>
                <mxCell id="176" value="C" style="text;html=1;align=center;verticalAlign=middle;resizable=0;points=[];autosize=1;fillColor=#d5e8d4;strokeColor=#82b366;" parent="1" vertex="1">
                    <mxGeometry x="200" y="134" width="20" height="20" as="geometry"/>
                </mxCell>
                <mxCell id="177" value="G" style="text;html=1;align=center;verticalAlign=middle;resizable=0;points=[];autosize=1;fillColor=#d5e8d4;strokeColor=#82b366;" parent="1" vertex="1">
                    <mxGeometry x="200" y="169" width="20" height="20" as="geometry"/>
                </mxCell>
                <mxCell id="178" value="D" style="text;html=1;align=center;verticalAlign=middle;resizable=0;points=[];autosize=1;fillColor=#d5e8d4;strokeColor=#82b366;" parent="1" vertex="1">
                    <mxGeometry x="302.5" y="135" width="20" height="20" as="geometry"/>
                </mxCell>
                <mxCell id="179" value="H" style="text;html=1;align=center;verticalAlign=middle;resizable=0;points=[];autosize=1;fillColor=#d5e8d4;strokeColor=#82b366;" parent="1" vertex="1">
                    <mxGeometry x="302.5" y="170" width="20" height="20" as="geometry"/>
                </mxCell>
                <mxCell id="180" value="E" style="text;html=1;align=center;verticalAlign=middle;resizable=0;points=[];autosize=1;fillColor=#d5e8d4;strokeColor=#82b366;" parent="1" vertex="1">
                    <mxGeometry x="350" y="130" width="20" height="20" as="geometry"/>
                </mxCell>
                <mxCell id="183" value="F" style="text;html=1;align=center;verticalAlign=middle;resizable=0;points=[];autosize=1;fillColor=#d5e8d4;strokeColor=#82b366;" parent="1" vertex="1">
                    <mxGeometry x="390" y="150" width="20" height="20" as="geometry"/>
                </mxCell>
                <mxCell id="185" value="I" style="text;html=1;align=center;verticalAlign=middle;resizable=0;points=[];autosize=1;fillColor=#d5e8d4;strokeColor=#82b366;" parent="1" vertex="1">
                    <mxGeometry x="430" y="170" width="20" height="20" as="geometry"/>
                </mxCell>
                <mxCell id="186" value="J" style="text;html=1;align=center;verticalAlign=middle;resizable=0;points=[];autosize=1;fillColor=#d5e8d4;strokeColor=#82b366;" parent="1" vertex="1">
                    <mxGeometry x="20" y="230" width="20" height="20" as="geometry"/>
                </mxCell>
                <mxCell id="187" value="K" style="text;html=1;align=center;verticalAlign=middle;resizable=0;points=[];autosize=1;fillColor=#d5e8d4;strokeColor=#82b366;" parent="1" vertex="1">
                    <mxGeometry x="301.25" y="230" width="20" height="20" as="geometry"/>
                </mxCell>
                <mxCell id="188" value="L" style="text;html=1;align=center;verticalAlign=middle;resizable=0;points=[];autosize=1;fillColor=#d5e8d4;strokeColor=#82b366;" parent="1" vertex="1">
                    <mxGeometry x="20" y="300" width="20" height="20" as="geometry"/>
                </mxCell>
                <mxCell id="189" value="M" style="text;html=1;align=center;verticalAlign=middle;resizable=0;points=[];autosize=1;fillColor=#d5e8d4;strokeColor=#82b366;" parent="1" vertex="1">
                    <mxGeometry x="10" y="360" width="30" height="20" as="geometry"/>
                </mxCell>
                <mxCell id="190" value="N" style="text;html=1;align=center;verticalAlign=middle;resizable=0;points=[];autosize=1;fillColor=#d5e8d4;strokeColor=#82b366;" parent="1" vertex="1">
                    <mxGeometry x="20.5" y="440" width="20" height="20" as="geometry"/>
                </mxCell>
                <mxCell id="191" value="Q" style="text;html=1;align=center;verticalAlign=middle;resizable=0;points=[];autosize=1;fillColor=#d5e8d4;strokeColor=#82b366;" parent="1" vertex="1">
                    <mxGeometry x="500" y="600" width="20" height="20" as="geometry"/>
                </mxCell>
                <mxCell id="192" value="O" style="text;html=1;align=center;verticalAlign=middle;resizable=0;points=[];autosize=1;fillColor=#d5e8d4;strokeColor=#82b366;" parent="1" vertex="1">
                    <mxGeometry x="112.5" y="580" width="20" height="20" as="geometry"/>
                </mxCell>
                <mxCell id="195" value="P" style="text;html=1;align=center;verticalAlign=middle;resizable=0;points=[];autosize=1;fillColor=#d5e8d4;strokeColor=#82b366;" parent="1" vertex="1">
                    <mxGeometry x="270" y="580" width="20" height="20" as="geometry"/>
                </mxCell>
                <mxCell id="196" value="" style="triangle;whiteSpace=wrap;html=1;align=left;rotation=89;labelBackgroundColor=#2E1616;fillColor=#f5f5f5;strokeColor=#666666;fontColor=#333333;" vertex="1" parent="1">
                    <mxGeometry x="180" y="260" width="10" height="10" as="geometry"/>
                </mxCell>
                <mxCell id="198" value="" style="triangle;whiteSpace=wrap;html=1;align=left;rotation=89;labelBackgroundColor=#2E1616;fillColor=#f5f5f5;strokeColor=#666666;fontColor=#333333;" vertex="1" parent="1">
                    <mxGeometry x="275" y="260" width="10" height="10" as="geometry"/>
                </mxCell>
                <mxCell id="199" value="" style="triangle;whiteSpace=wrap;html=1;align=left;rotation=89;labelBackgroundColor=#2E1616;fillColor=#f5f5f5;strokeColor=#666666;fontColor=#333333;" vertex="1" parent="1">
                    <mxGeometry x="462.5" y="260" width="10" height="10" as="geometry"/>
                </mxCell>
                <mxCell id="201" value="" style="triangle;whiteSpace=wrap;html=1;align=left;rotation=89;labelBackgroundColor=#2E1616;fillColor=#f5f5f5;strokeColor=#666666;fontColor=#333333;" vertex="1" parent="1">
                    <mxGeometry x="544" y="260" width="10" height="10" as="geometry"/>
                </mxCell>
            </root>
        </mxGraphModel>
    </diagram>
</mxfile>